<svg xmlns="http://www.w3.org/2000/svg" viewBox="0 0 168.66 29.2"><defs><style>.a{fill:#3b82f6;}.b{font-size:22.87px;font-family:Roboto-Bold, Roboto;font-weight:700;}</style></defs><title>logo2</title><path class="a" d="M17,2.06C13.6,2,11.44,4.82,11.67,8.54c1.47-3.72,6.21-4.18,8.24-2.15-4.73-.56-11.27,2.82-6.65,12.39.9-7.21,6.42-9.48,8.9-9.82,3.38.22,7.87,4,8.09,9.71C37.46,9.32,26,5.94,23.18,7c.68-1.46,4.6-2.71,8.66.67-1.47-9.68-9.68-3.48-9.68-3.48A9.29,9.29,0,0,0,17,2.06Zm5.31,8-1.44.7C20.48,25.43,11,26.19,10.69,26.31c2.93,1,5.15-.67,9.43-1.24,4.62-3.94,3.27-14.28,3.27-14.28ZM3.69,26.2a9.3,9.3,0,0,0,8.69,5.07c7.43,0,7.75-2.36,12.7-2.36a38,38,0,0,1,7.67.67,13.68,13.68,0,0,0-7.67-2.71c-4.28,0-8,2.25-12.7,2.25A13.13,13.13,0,0,1,3.69,26.2Z" transform="translate(-3.69 -2.06)"/><text class="b" transform="translate(42.56 22.44) scale(0.86 1)">Travel <tspan class="a" x="69.04" y="0">Agency</tspan></text></svg>